<?xml version="1.0" encoding="UTF-8"?>
<svg id="Layer_2" data-name="Layer 2" xmlns="http://www.w3.org/2000/svg" viewBox="0 0 74.62 28.05">
  <defs>
    <style>
      .cls-1 {
        fill: #fff;
      }
    </style>
  </defs>
  <g id="Layer_1-2" data-name="Layer 1">
    <polyline class="cls-1" points="10.16 0 0 13.75 10.16 27.47 18.17 27.47 9.09 13.74 18.17 0"/>
    <polyline class="cls-1" points="64.46 .5 74.62 14.25 64.46 27.97 56.45 27.97 65.54 14.24 56.45 .5"/>
    <path class="cls-1" d="M37.31,6.5c4.15,0,7.52,3.37,7.52,7.52s-3.37,7.52-7.52,7.52-7.52-3.37-7.52-7.52,3.37-7.52,7.52-7.52M37.31,0C29.57,0,23.29,6.28,23.29,14.02s6.28,14.02,14.02,14.02,14.02-6.28,14.02-14.02S45.06,0,37.31,0h0Z"/>
  </g>
</svg>